<svg xmlns="http://www.w3.org/2000/svg"  viewBox="0 0 40 40" width="24px" height="24px"><path fill="#f78f8f" d="M37.229,14.514c0,0-0.544,3.423-3.014,3.423c-3.291,0-0.857-6.218-0.857-9.427 c0-5.999-5.034-7.561-5.034-7.561s2.463,3.276,2.463,7.561c0,10.284-15.425,8.57-15.425,16.282c0,1.714,0.857,1.714,0.857,1.714 s1.034-2.083,3.536-2.999l0.164-1.495l0.994,0.109l-0.12,1.093c0.44-0.085,0.912-0.136,1.425-0.136 c3.428,0,4.285,2.908,4.285,4.622c0,2.474-2.085,5.42-6.823,5.64l-0.56,5.098c0.457,0.028,0.908,0.065,1.384,0.065 c8.94,0,17.996-6.24,17.996-17.274C38.5,15.973,37.229,14.514,37.229,14.514z"/><path fill="#f78f8f" d="M18.673,33.346c-4.153-0.172-8.453-2.761-8.453-8.553c0-10.284,16.282-9.427,16.282-17.139 c0-1.446-0.428-2.142-0.428-2.142c0,3.856-5.57,5.57-5.57,5.57c2.359-4.345-0.857-7.713-0.857-7.713s-3.428,9.427-7.713,9.427 c-4.468,0-1.714-5.999-1.714-5.999S2.509,9.512,2.509,20.652c0,8.275,5.239,16.607,15.612,17.718L18.673,33.346z"/><g><path fill="#c74343" d="M18.175,37.879C7.778,36.792,3.009,28.448,3.009,20.652c0-8.243,4.257-11.687,6.308-12.867 c-0.382,1.22-0.754,3.097,0.032,4.323c0.505,0.788,1.375,1.187,2.586,1.187c3.834,0,6.88-6.553,7.856-8.925 c0.741,1.117,1.864,3.543,0.273,6.472l-0.585,1.077l1.172-0.36c0.194-0.06,3.904-1.233,5.352-3.861 c-0.03,3.239-3.256,4.833-6.988,6.678C14.658,16.53,9.72,18.971,9.72,24.793c0,6.003,4.521,8.849,8.899,9.05l0.109-0.995 c-4.048-0.151-8.008-2.654-8.008-8.055c0-5.2,4.442-7.396,8.738-9.52c3.88-1.918,7.545-3.729,7.545-7.62 c0-1.542-0.451-2.32-0.503-2.404l-0.926-1.504v1.767c0,2.432-2.584,3.963-4.115,4.657c1.435-4.054-1.419-7.112-1.451-7.145 l-0.556-0.582l-0.275,0.756c-0.921,2.53-4.018,9.098-7.242,9.098c-0.859,0-1.431-0.237-1.744-0.726 c-0.769-1.197,0.089-3.701,0.483-4.564l0.49-1.071l-1.11,0.391c-0.08,0.028-8.045,2.964-8.045,14.328 c0,8.487,5.508,17.062,16.058,18.212L18.175,37.879z"/><path fill="#c74343" d="M37.605,14.186l-0.7-0.802l-0.171,1.052c-0.005,0.03-0.51,3.002-2.52,3.002 c-0.515,0-0.729-0.185-0.847-0.324c-0.69-0.821-0.29-3.133,0.064-5.172c0.219-1.261,0.426-2.452,0.426-3.431 c0-6.294-5.332-8.022-5.386-8.039L27,0.015l0.924,1.234c0.024,0.032,2.363,3.204,2.363,7.261c0,5.192-4.195,7.148-8.253,9.041 c-3.688,1.72-7.172,3.344-7.172,7.242c0,2.188,1.301,2.214,1.356,2.214l0.31-0.001l0.139-0.277 c0.048-0.096,0.932-1.817,3.027-2.673l0.122-1.111c-2.085,0.675-3.268,2.115-3.766,2.867c-0.099-0.175-0.188-0.488-0.188-1.019 c0-3.261,3.056-4.686,6.595-6.336c4.139-1.93,8.83-4.117,8.83-9.947c0-2.646-0.89-4.903-1.621-6.312 c1.371,0.93,3.192,2.823,3.192,6.312c0,0.893-0.199,2.042-0.411,3.26c-0.43,2.473-0.835,4.809,0.156,5.986 c0.38,0.452,0.922,0.681,1.611,0.681c1.77,0,2.682-1.407,3.126-2.52C37.654,16.865,38,18.524,38,21.23 c0,10.896-9.015,16.774-17.496,16.774c-0.459,0-0.89-0.037-1.33-0.063l-0.109,0.994c0.475,0.03,0.944,0.069,1.439,0.069 C29.471,39.004,39,32.775,39,21.23C39,15.938,37.748,14.349,37.605,14.186z"/><path fill="#c74343" d="M19.735,32.838l-0.11,1.005c4.841-0.198,7.378-3.184,7.378-6.142c0-1.902-1.008-5.122-4.785-5.122 c-0.489,0-0.941,0.046-1.368,0.119l-0.114,1.04c0.452-0.098,0.943-0.159,1.482-0.159c3.679,0,3.785,3.7,3.785,4.122 C26.003,29.687,24.313,32.595,19.735,32.838z"/></g></svg>